<svg width="19" height="18" viewBox="0 0 19 18" fill="none" xmlns="http://www.w3.org/2000/svg">
<path fill-rule="evenodd" clip-rule="evenodd" d="M13.6118 4.80005C13.6118 2.31477 11.5971 0.300049 9.11182 0.300049C6.62653 0.300049 4.61182 2.31477 4.61182 4.80005C4.61182 6.07884 5.14522 7.23304 6.00168 8.0523C2.56375 9.31837 0.111816 12.6231 0.111816 16.5004V16.9005C0.111816 17.1766 0.335674 17.4004 0.611817 17.4004H1.41448C1.68958 17.4004 1.91308 17.1782 1.91315 16.9031C1.91319 16.7637 1.91287 16.6182 1.91182 16.5004C1.91182 12.524 5.13537 9.30044 9.11182 9.30044C13.0883 9.30044 16.3118 12.524 16.3118 16.5004C16.3108 16.6096 16.3106 16.7579 16.3106 16.9027C16.3107 17.178 16.5343 17.4004 16.8096 17.4004H17.6118C17.888 17.4004 18.1118 17.1766 18.1118 16.9005V16.5004C18.1118 12.6231 15.6599 9.31837 12.2219 8.0523C13.0784 7.23304 13.6118 6.07884 13.6118 4.80005ZM9.11182 2.10005C10.603 2.10005 11.8118 3.30888 11.8118 4.80005C11.8118 6.29122 10.603 7.50005 9.11182 7.50005C7.62065 7.50005 6.41182 6.29122 6.41182 4.80005C6.41182 3.30888 7.62065 2.10005 9.11182 2.10005Z" fill="black"/>
</svg>
