<svg width="24" height="24" viewBox="0 0 24 24" fill="none" xmlns="http://www.w3.org/2000/svg">
<path fill-rule="evenodd" clip-rule="evenodd" d="M7.72459 9V7.28571C7.72459 4.91878 9.63441 3 11.9903 3C14.3462 3 16.256 4.91878 16.256 7.28571V9H18.8155C19.2866 9 19.6686 9.38376 19.6686 9.85714V20.1429C19.6686 20.6162 19.2866 21 18.8155 21H5.16516C4.69398 21 4.31201 20.6162 4.31201 20.1429V9.85714C4.31201 9.38376 4.69398 9 5.16516 9H7.72459ZM7.72459 10.7148H6.0183V19.2863H17.9623V10.7148H16.256V12.4291H14.5497V10.7148H9.43087V12.4291H7.72459V10.7148ZM9.43082 9.00002H14.5497V7.28574C14.5497 5.86557 13.4038 4.71431 11.9902 4.71431C10.5767 4.71431 9.43082 5.86557 9.43082 7.28574V9.00002Z" fill="#000105"/>
</svg>
