<svg width="135" height="96" viewBox="0 0 135 96" fill="none" xmlns="http://www.w3.org/2000/svg">
<path fill-rule="evenodd" clip-rule="evenodd" d="M82.7505 80.9843C82.7505 88.3564 76.7622 94.3545 69.4014 94.3545C62.0405 94.3545 56.0522 88.3564 56.0522 80.9843C56.0522 80.8424 56.0634 80.7033 56.0676 80.5624C58.9836 82.4267 62.4536 83.5213 66.1836 83.5213C72.5688 83.5213 78.2105 80.3428 81.5663 75.5132C82.3219 77.1837 82.7505 79.0326 82.7505 80.9843ZM50.1206 15.0153C50.1206 7.64307 56.1088 1.64551 63.4697 1.64551C70.8306 1.64551 76.8188 7.64307 76.8188 15.0153C76.8188 15.0898 76.8118 15.1624 76.8105 15.2365C73.7937 13.1658 70.1338 11.9416 66.1837 11.9416C59.913 11.9416 54.3685 15.0139 50.9928 19.698C50.4421 18.2378 50.1206 16.6663 50.1206 15.0153ZM80.524 53.5806L80.552 53.5554L51.6754 21.6395C54.6545 16.8227 60.0342 13.587 66.1832 13.587C70.1297 13.587 73.7567 14.9265 76.643 17.1514C75.9195 21.632 72.964 25.3692 68.9589 27.1885C69.3339 27.5457 69.6688 27.863 70.0545 28.2265L80.9251 39.1139C81.2405 39.4555 81.5297 39.7941 81.8416 40.1389C83.7145 37.285 84.8037 33.8897 84.8037 30.2478C84.8037 24.7434 82.3084 19.811 78.3846 16.4522C78.4298 15.9784 78.4613 15.5008 78.4613 15.0153C78.4613 6.73587 71.7358 0 63.4693 0C55.2027 0 48.4771 6.73587 48.4771 15.0153C48.4771 17.2929 48.9913 19.4505 49.9023 21.3858C48.4162 24.0141 47.563 27.0336 47.563 30.2478C47.563 34.5532 49.0906 38.5068 51.6333 41.6317L51.6107 41.6523L52.4612 42.5867C52.4645 42.5904 52.4678 42.5943 52.4713 42.5979L80.7717 73.6939C77.8097 78.5825 72.3877 81.8757 66.1832 81.8757C62.4719 81.8757 59.0457 80.6873 56.2489 78.6968C57.0024 74.2144 59.9299 70.4888 63.9818 68.7214C63.5502 68.3211 63.1764 67.9598 62.7512 67.5339C62.7502 67.5345 62.749 67.5352 62.748 67.5356L51.7362 56.5068L51.7369 56.5059C51.2904 56.072 51.0313 55.7379 50.5774 55.2544C48.5161 58.1994 47.563 61.3772 47.563 65.2148C47.563 70.9582 50.272 76.0862 54.4943 79.4449C54.4437 79.9516 54.4089 80.4633 54.4089 80.9843C54.4089 89.2637 61.1343 96 69.4009 96C77.6674 96 84.393 89.2637 84.393 80.9843C84.393 78.4093 83.7291 75.9927 82.5822 73.8742C83.9973 71.2943 84.8037 68.3458 84.8037 65.2148C84.8037 60.7934 83.1907 56.7442 80.524 53.5806Z" fill="#E1DFE5"/>
<path fill-rule="evenodd" clip-rule="evenodd" d="M12.4949 41.8674L10.024 43.3062C9.81301 42.8075 9.50685 42.3854 9.10457 42.0401C8.54886 41.5608 7.84992 41.3207 7.00726 41.3207C6.18349 41.3207 5.49878 41.532 4.95303 41.9538C4.40705 42.376 4.13412 42.9609 4.13412 43.709C4.13412 44.7836 4.85241 45.6082 6.28898 46.1838L8.30013 46.9895C11.4794 48.2366 13.0694 50.2223 13.0694 52.946C13.0694 54.8452 12.4563 56.3945 11.2307 57.5932C10.0048 58.7923 8.44384 59.3917 6.54755 59.3917C4.57461 59.3917 2.99434 58.711 1.80696 57.3487C0.848977 56.2551 0.284237 54.9509 0.111816 53.4352L3.15726 52.7734C3.19548 53.771 3.48277 54.6247 4.01925 55.3344C4.61271 56.1212 5.4747 56.5142 6.60499 56.5142C7.69672 56.5142 8.52999 56.1832 9.10457 55.5213C9.67927 54.8596 9.96656 54.0683 9.96656 53.1474C9.96656 52.246 9.69814 51.5409 9.16212 51.0324C8.62564 50.5243 7.92669 50.0878 7.0647 49.7231L5.1397 48.8887C2.40042 47.6994 1.03112 46.0016 1.03112 43.7954C1.03112 42.2226 1.60582 40.9372 2.7551 39.9394C3.90427 38.9422 5.29278 38.4431 6.92111 38.4431C8.56808 38.4431 9.90901 38.9035 10.9434 39.8244C11.5756 40.381 12.0926 41.0617 12.4949 41.8674Z" fill="#222220"/>
<path fill-rule="evenodd" clip-rule="evenodd" d="M32.2906 39.9397V43.5654C30.758 42.069 28.9479 41.3208 26.8605 41.3208C24.6958 41.3208 22.953 42.0402 21.6315 43.479C20.3098 44.9178 19.649 46.7594 19.649 49.0039C19.649 51.172 20.3241 52.9655 21.6745 54.385C23.0248 55.8048 24.7532 56.5143 26.8605 56.5143C28.8523 56.5143 30.6623 55.7374 32.2906 54.1835V57.8667C30.7005 58.8838 28.8618 59.3919 26.7742 59.3919C23.9967 59.3919 21.6215 58.4616 19.649 56.6006C17.5035 54.5482 16.4312 52.0159 16.4312 49.0039C16.4312 45.8004 17.5035 43.1724 19.649 41.1194C21.5066 39.3354 23.9299 38.4434 26.9179 38.4434C29.0247 38.4434 30.8155 38.9424 32.2906 39.9397Z" fill="#222220"/>
<path fill-rule="evenodd" clip-rule="evenodd" d="M36.5132 38.8457H39.6162V50.9889C39.6162 52.5623 39.8173 53.7226 40.2195 54.4709C40.545 55.0656 41.0284 55.5548 41.6704 55.9383C42.3119 56.3223 43.0733 56.5139 43.9545 56.5139C45.7166 56.5139 46.9614 55.8331 47.6896 54.4709C48.0918 53.7037 48.2929 52.5429 48.2929 50.9889V38.8457H51.3958V51.7946C51.3958 53.9053 50.7732 55.6506 49.5284 57.0318C48.1107 58.6051 46.2531 59.3914 43.9545 59.3914C41.6561 59.3914 39.798 58.6051 38.3807 57.0318C37.1355 55.6506 36.5132 53.9053 36.5132 51.7946V38.8457Z" fill="#222220"/>
<path fill-rule="evenodd" clip-rule="evenodd" d="M56.5962 38.8461H59.6992V56.1114H65.5603V58.989H56.5962V38.8461Z" fill="#222220"/>
<path fill-rule="evenodd" clip-rule="evenodd" d="M72.0239 41.7236V47.9391H73.3743C75.8833 47.9391 77.1381 46.8938 77.1381 44.8027C77.1381 42.7501 75.8739 41.7236 73.3456 41.7236H72.0239ZM68.9214 38.8457H73.346C75.1655 38.8457 76.6307 39.2104 77.7418 39.9392C79.4083 41.0327 80.2414 42.6634 80.2414 44.8311C80.2414 46.6538 79.5901 48.1213 78.2877 49.2338C77.0616 50.2889 75.4239 50.8164 73.3747 50.8164H72.0243V58.9886H68.9214V38.8457Z" fill="#222220"/>
<path fill-rule="evenodd" clip-rule="evenodd" d="M94.1186 41.7233H89.5217V58.9886H86.4187V41.7233H81.8218V38.8457H94.1186V41.7233Z" fill="#222220"/>
<path fill-rule="evenodd" clip-rule="evenodd" d="M101.057 54.3993C102.408 55.8092 104.146 56.5142 106.272 56.5142C108.398 56.5142 110.136 55.8092 111.487 54.3993C112.837 52.9893 113.512 51.1719 113.512 48.9462C113.512 46.7211 112.837 44.8939 111.487 43.4645C110.136 42.0357 108.398 41.3207 106.272 41.3207C104.146 41.3207 102.408 42.0357 101.057 43.4645C99.707 44.8939 99.0318 46.7211 99.0318 48.9462C99.0318 51.1719 99.707 52.9893 101.057 54.3993ZM98.802 41.4646C100.794 39.4504 103.284 38.4432 106.272 38.4432C109.26 38.4432 111.75 39.4504 113.742 41.4646C115.734 43.4789 116.73 45.973 116.73 48.9462C116.73 51.9007 115.739 54.3804 113.757 56.3848C111.774 58.3895 109.279 59.3918 106.272 59.3918C103.265 59.3918 100.77 58.3895 98.7876 56.3848C96.8052 54.3804 95.814 51.9007 95.814 48.9462C95.814 45.973 96.8097 43.4789 98.802 41.4646Z" fill="#222220"/>
<path fill-rule="evenodd" clip-rule="evenodd" d="M124.113 41.7234V48.0828H125.061C125.329 48.0828 125.583 48.0733 125.822 48.054C126.062 48.0351 126.406 47.9676 126.857 47.8526C127.306 47.7374 127.685 47.5747 127.992 47.3634C128.298 47.1526 128.576 46.8265 128.825 46.385C129.073 45.944 129.198 45.4165 129.198 44.8024C129.198 42.7499 127.848 41.7234 125.147 41.7234H124.113ZM121.01 38.8459H124.602C126.976 38.8459 128.748 39.2395 129.917 40.0258C130.779 40.6014 131.392 41.3306 131.756 42.2127C132.119 43.0953 132.302 43.9491 132.302 44.7738C132.302 46.1936 131.889 47.4067 131.066 48.4139C130.242 49.421 129.16 50.0783 127.82 50.3851L134.112 58.9888H130.377L124.63 50.7303H124.113V58.9888H121.01V38.8459Z" fill="#222220"/>
</svg>
