<svg width="24" height="24" viewBox="0 0 24 24" fill="none" xmlns="http://www.w3.org/2000/svg">
<mask id="mask0_703_1333" style="mask-type:alpha" maskUnits="userSpaceOnUse" x="3" y="3" width="18" height="18">
<path fill-rule="evenodd" clip-rule="evenodd" d="M16.1665 9.9165C16.1665 6.46472 13.3683 3.6665 9.9165 3.6665C6.46472 3.6665 3.6665 6.46472 3.6665 9.9165C3.6665 13.3683 6.46472 16.1665 9.9165 16.1665C11.3409 16.1665 12.6539 15.69 13.705 14.8878L18.8089 19.984C19.0041 20.179 19.3204 20.1789 19.5156 19.9838L19.9761 19.5237C20.1712 19.3286 20.1715 19.0124 19.9768 18.817L14.8853 13.7083C15.6891 12.6566 16.1665 11.3423 16.1665 9.9165ZM14.4998 9.9165C14.4998 12.4478 12.4478 14.4998 9.9165 14.4998C7.3852 14.4998 5.33317 12.4478 5.33317 9.9165C5.33317 7.3852 7.3852 5.33317 9.9165 5.33317C12.4478 5.33317 14.4998 7.3852 14.4998 9.9165Z" fill="white"/>
</mask>
<g mask="url(#mask0_703_1333)">
<rect x="3" y="3" width="18" height="18" fill="white"/>
</g>
</svg>
