<svg width="25" height="24" viewBox="0 0 25 24" fill="none" xmlns="http://www.w3.org/2000/svg">
<path d="M12.8325 0C6.2042 0 0.83252 5.3732 0.83252 12.0008C0.83252 16.9156 3.78596 21.1378 8.01427 22.9927C7.98311 22.1557 8.00819 21.1492 8.22637 20.2369C8.45672 19.2631 9.76961 13.6976 9.76961 13.6976C9.76961 13.6976 9.38494 12.9313 9.38494 11.7985C9.38494 10.0212 10.415 8.6923 11.6998 8.6923C12.7922 8.6923 13.3198 9.51182 13.3198 10.4933C13.3198 11.5918 12.6189 13.2323 12.2593 14.7543C11.9583 16.0253 12.8964 17.063 14.1538 17.063C16.4283 17.063 17.9579 14.143 17.9579 10.6833C17.9579 8.05448 16.1835 6.08476 12.9648 6.08476C9.32565 6.08476 7.05488 8.79949 7.05488 11.8312C7.05488 12.878 7.36429 13.6147 7.84931 14.1833C8.07053 14.4464 8.1017 14.5528 8.02036 14.8531C7.96258 15.0743 7.82878 15.6072 7.77405 15.8178C7.6965 16.1226 7.44867 16.2314 7.17272 16.1196C5.49796 15.4339 4.71494 13.5972 4.71494 11.5332C4.71494 8.12518 7.59236 4.03674 13.2902 4.03674C17.8765 4.03674 20.8923 7.35128 20.8923 10.9121C20.8923 15.6179 18.2757 19.1339 14.4183 19.1339C13.1206 19.1339 11.8997 18.4352 11.4847 17.6393C11.4847 17.6393 10.7868 20.4057 10.6393 20.9394C10.3854 21.8638 9.88516 22.789 9.43208 23.5104C10.5085 23.8282 11.6519 24.0023 12.8325 24.0023C19.4608 24.0023 24.8325 18.6291 24.8325 12.0008C24.8325 5.3732 19.4608 0 12.8325 0Z" fill="white" fill-opacity="0.8"/>
</svg>
