<svg width="25" height="24" viewBox="0 0 25 24" fill="none" xmlns="http://www.w3.org/2000/svg">
<path fill-rule="evenodd" clip-rule="evenodd" d="M24.7604 7.21047C24.702 5.97389 24.4991 5.12942 24.2025 4.39059C23.9012 3.61542 23.4288 2.91329 22.8184 2.33294C22.2191 1.74194 21.4936 1.28443 20.6929 0.99266C19.9295 0.705673 19.0574 0.509444 17.78 0.453252C16.5003 0.396529 16.0914 0.383057 12.8325 0.383057C9.57361 0.383057 9.16473 0.396529 7.88501 0.452898C6.60767 0.509444 5.73553 0.70585 4.97217 0.993014C4.17145 1.28461 3.44617 1.74194 2.84668 2.33294C2.23621 2.91311 1.76361 3.61525 1.46222 4.39041C1.16577 5.12942 0.963074 5.97389 0.905029 7.21029C0.846436 8.44935 0.83252 8.845 0.83252 11.9999C0.83252 15.155 0.846436 15.5508 0.905029 16.7897C0.963257 18.0261 1.16614 18.8706 1.46277 19.6096C1.76398 20.3846 2.23639 21.0869 2.84686 21.667C3.44617 22.258 4.17163 22.7154 4.97235 23.007C5.73553 23.2943 6.60785 23.4905 7.88519 23.5471C9.1651 23.6036 9.57379 23.6169 12.8327 23.6169C16.0916 23.6169 16.5005 23.6036 17.7802 23.5471C19.0576 23.4905 19.9297 23.2943 20.6931 23.007C22.3049 22.4036 23.5792 21.17 24.2025 19.6096C24.4993 18.8706 24.702 18.0261 24.7604 16.7897C24.8186 15.5506 24.8325 15.155 24.8325 12.0001C24.8325 8.845 24.8186 8.44935 24.7604 7.21047ZM22.6003 16.6945C22.547 17.8272 22.3514 18.4423 22.1872 18.8516C21.7834 19.8648 20.9564 20.6655 19.9097 21.0564C19.4869 21.2154 18.8516 21.4047 17.6815 21.4563C16.4164 21.5123 16.0369 21.524 12.8325 21.524C9.62799 21.524 9.2486 21.5123 7.98334 21.4563C6.81348 21.4047 6.1781 21.2154 5.75513 21.0564C5.23401 20.8701 4.76251 20.5732 4.37543 20.1873C3.97681 19.8125 3.6701 19.3563 3.47766 18.8516C3.31342 18.4423 3.11786 17.8272 3.06458 16.6945C3.0069 15.4696 2.99463 15.1022 2.99463 12.0003C2.99463 8.89818 3.0069 8.53089 3.06458 7.30583C3.11804 6.17313 3.31342 5.55803 3.47766 5.14874C3.6701 4.64407 3.97699 4.18762 4.37543 3.81289C4.76251 3.42699 5.23401 3.13008 5.75531 2.94396C6.1781 2.78478 6.81348 2.59564 7.98352 2.54388C9.24878 2.48804 9.62836 2.47616 12.8325 2.47616C16.0365 2.47616 16.4161 2.48804 17.6815 2.54405C18.8516 2.59564 19.4868 2.78495 19.9097 2.94396C20.4308 3.13026 20.9023 3.42717 21.2894 3.81289C21.688 4.18762 21.9948 4.64407 22.187 5.14874C22.3514 5.55803 22.547 6.17313 22.6003 7.30583C22.658 8.53071 22.6702 8.89818 22.6702 12.0001C22.6702 15.1022 22.6581 15.4694 22.6003 16.6945ZM12.8323 6.03451C9.42914 6.03451 6.67029 8.70549 6.67029 12.0001C6.67029 15.2947 9.42914 17.9655 12.8323 17.9655C16.2357 17.9655 18.9946 15.2947 18.9946 12.0001C18.9946 8.70549 16.2357 6.03451 12.8323 6.03451ZM12.8323 15.8724C10.6234 15.8722 8.8324 14.1386 8.83258 11.9999C8.83258 9.86142 10.6234 8.12762 12.8325 8.12762C15.0417 8.1278 16.8325 9.86142 16.8325 11.9999C16.8325 14.1386 15.0415 15.8724 12.8323 15.8724ZM19.2381 7.19292C20.0333 7.19292 20.678 6.56878 20.678 5.79893C20.678 5.02891 20.0333 4.40477 19.2381 4.40477C18.4427 4.40477 17.798 5.02891 17.798 5.79893C17.798 6.56878 18.4427 7.19292 19.2381 7.19292Z" fill="white" fill-opacity="0.8"/>
</svg>
