<svg width="40" height="24" viewBox="0 0 40 24" fill="none" xmlns="http://www.w3.org/2000/svg">
<rect x="14.729" y="2.56836" width="10.5443" height="18.8579" fill="#FF5F00"/>
<path d="M15.3982 11.9972C15.3982 8.33225 17.1054 4.83387 19.9842 2.56825C14.7622 -1.52985 7.1971 -0.630267 3.0798 4.60065C-1.03751 9.79824 -0.133708 17.3281 5.12171 21.4262C9.50681 24.8579 15.6325 24.8579 20.0176 21.4262C17.1054 19.1606 15.3982 15.6622 15.3982 11.9972Z" fill="#EB001B"/>
<path d="M39.4999 11.9972C39.4999 18.6275 34.1106 23.9917 27.4493 23.9917C24.7379 23.9917 22.1269 23.0921 20.0181 21.4262C25.24 17.3281 26.1438 9.79824 22.0265 4.56733C21.424 3.83433 20.7545 3.13466 20.0181 2.56825C25.24 -1.52985 32.8386 -0.630267 36.9224 4.60065C38.5961 6.69967 39.4999 9.29847 39.4999 11.9972Z" fill="#F79E1B"/>
<path fill-rule="evenodd" clip-rule="evenodd" d="M38.3619 19.0271V19.4269H38.2949V19.0271H38.1274V18.9604H38.5293V19.0271H38.3619ZM39.1321 18.9604V19.4269H39.0651V19.0604L38.9311 19.3603H38.8307L38.6967 19.0604V19.4269H38.5963V18.9604H38.7302L38.8642 19.2936L38.9981 18.9604H39.1321Z" fill="#F79E1B"/>
</svg>
