<svg width="63" height="20" viewBox="0 0 63 20" fill="none" xmlns="http://www.w3.org/2000/svg">
<path d="M27.3652 19.7116H22.3428L25.4842 0.351074H30.5063L27.3652 19.7116Z" fill="#00579F"/>
<path d="M45.5728 0.824254C44.5821 0.432521 43.0109 0 41.068 0C36.1082 0 32.6156 2.63619 32.5941 6.40515C32.5529 9.18587 35.0948 10.7304 36.9959 11.6575C38.939 12.605 39.5995 13.2234 39.5995 14.0679C39.5797 15.3649 38.0294 15.9628 36.5834 15.9628C34.5782 15.9628 33.5038 15.6545 31.871 14.9329L31.2097 14.6236L30.5068 18.9696C31.6848 19.5045 33.855 19.9792 36.1082 20C41.3781 20 44.809 17.4046 44.8496 13.3882C44.8697 11.1842 43.5275 9.49548 40.6338 8.11552C38.8772 7.22967 37.8014 6.63236 37.8014 5.72598C37.822 4.902 38.7113 4.05803 40.6942 4.05803C42.327 4.0167 43.5267 4.40788 44.4355 4.79934L44.8897 5.00493L45.5728 0.824254Z" fill="#00579F"/>
<path fill-rule="evenodd" clip-rule="evenodd" d="M54.5628 0.351074H58.4476L62.4995 19.7113H57.8492C57.8492 19.7113 57.3941 17.4869 57.2499 16.8071H50.8015C50.615 17.3218 49.7474 19.7113 49.7474 19.7113H44.4775L51.9377 1.95743C52.4546 0.700924 53.3648 0.351074 54.5628 0.351074ZM54.2533 7.43594C54.2533 7.43594 52.6617 11.7406 52.2481 12.8529H56.4227C56.2161 11.8849 55.265 7.25061 55.265 7.25061L54.914 5.58239C54.7662 6.01197 54.5525 6.60256 54.4083 7.00091C54.3106 7.27095 54.2448 7.45264 54.2533 7.43594Z" fill="#00579F"/>
<path d="M18.148 0.351074L13.2294 13.5531L12.6919 10.8756C11.7825 7.78606 8.93063 4.42937 5.74805 2.76033L10.2533 19.6911H15.5644L23.4588 0.351074H18.148V0.351074Z" fill="#00579F"/>
<path d="M8.6623 0.35083H0.581692L0.499023 0.742015C6.8024 2.34864 10.977 6.22135 12.6922 10.8762L10.9355 1.97826C10.6463 0.741742 9.75758 0.391618 8.6623 0.35083Z" fill="#FAA61A"/>
</svg>
