<svg width="20" height="21" viewBox="0 0 20 21" fill="none" xmlns="http://www.w3.org/2000/svg">
<path fill-rule="evenodd" clip-rule="evenodd" d="M6.3735 8V6.57143C6.3735 4.59898 7.97248 3 9.94493 3C11.9174 3 13.5164 4.59898 13.5164 6.57143V8H15.6592C16.0537 8 16.3735 8.3198 16.3735 8.71429V17.2857C16.3735 17.6802 16.0537 18 15.6592 18H4.23064C3.83615 18 3.51636 17.6802 3.51636 17.2857V8.71429C3.51636 8.3198 3.83615 8 4.23064 8H6.3735ZM6.3735 9.42904H4.94493V16.5719H14.9449V9.42904H13.5164V10.8576H12.0878V9.42904H7.80207V10.8576H6.3735V9.42904ZM7.80202 8.00002H12.0877V6.57145C12.0877 5.38798 11.1283 4.42859 9.94488 4.42859C8.76141 4.42859 7.80202 5.38798 7.80202 6.57145V8.00002V8.00002Z" fill="white"/>
</svg>
