<svg width="10" height="10" viewBox="0 0 10 10" fill="none" xmlns="http://www.w3.org/2000/svg">
<path fill-rule="evenodd" clip-rule="evenodd" d="M4.33337 4.33337V0.833374C4.33337 0.557232 4.55723 0.333374 4.83337 0.333374H5.16671C5.44285 0.333374 5.66671 0.557232 5.66671 0.833374V4.33337H9.16671C9.44285 4.33337 9.66671 4.55723 9.66671 4.83337V5.16671C9.66671 5.44285 9.44285 5.66671 9.16671 5.66671H5.66671V9.16671C5.66671 9.44285 5.44285 9.66671 5.16671 9.66671H4.83337C4.55723 9.66671 4.33337 9.44285 4.33337 9.16671V5.66671H0.833374C0.557232 5.66671 0.333374 5.44285 0.333374 5.16671V4.83337C0.333374 4.55723 0.557232 4.33337 0.833374 4.33337H4.33337Z" fill="#000105"/>
</svg>
