<svg width="36" height="36" viewBox="0 0 36 36" fill="none" xmlns="http://www.w3.org/2000/svg">
<rect width="36" height="36" rx="18" fill="#000105"/>
<path fill-rule="evenodd" clip-rule="evenodd" d="M15.0987 15V13.8571C15.0987 12.2792 16.3779 11 17.9558 11C19.5338 11 20.813 12.2792 20.813 13.8571V15H22.5273C22.8429 15 23.0987 15.2558 23.0987 15.5714V22.4286C23.0987 22.7442 22.8429 23 22.5273 23H13.3844C13.0688 23 12.813 22.7442 12.813 22.4286V15.5714C12.813 15.2558 13.0688 15 13.3844 15H15.0987ZM15.0987 16.1432H13.9558V21.8575H21.9558V16.1432H20.813V17.2861H19.6701V16.1432H16.2416V17.2861H15.0987V16.1432ZM16.2415 15H19.6701V13.8572C19.6701 12.9104 18.9026 12.1429 17.9558 12.1429C17.009 12.1429 16.2415 12.9104 16.2415 13.8572V15Z" fill="white"/>
</svg>
