<svg width="105" height="84" viewBox="0 0 105 84" fill="none" xmlns="http://www.w3.org/2000/svg">
<g clip-path="url(#clip0_221_5797)">
<path d="M50.0707 39.7803C54.4825 39.7803 59.0311 42.545 62.0703 44.8644C65.5183 47.4962 67.8522 50.1577 67.8741 50.1845C68.521 50.931 69.6163 51.1197 70.4787 50.6317C71.341 50.1419 71.7408 49.1049 71.4297 48.1649L68.7062 39.9181C69.659 40.1164 70.7118 40.2555 71.8005 40.2621C74.6114 40.2748 76.9369 39.4156 78.6997 37.7001C83.6205 32.9122 77.1383 24.4455 74.8633 21.7784C76.3585 19.8997 77.2348 18.1101 77.4696 16.4468C77.5249 16.0488 77.6188 14.6125 77.5947 14.2276C77.5025 12.739 76.8399 11.3579 75.7304 10.342C74.6 9.30849 73.1543 8.78982 71.6592 8.88014C70.1628 8.9723 68.8023 9.66963 67.8289 10.8427C67.7736 10.9107 67.7179 10.9792 67.6657 11.049C66.5852 9.9378 65.0699 9.28649 63.4369 9.38793C60.3566 9.57796 58.0088 12.2843 58.2022 15.4235C58.2259 15.8088 58.4954 17.2228 58.6003 17.6098C58.7447 18.1474 58.9619 18.6894 59.2485 19.2363C52.7627 17.2513 42.4202 14.7038 34.3268 20.2667C32.6732 21.4033 31.3655 22.9761 30.4254 24.9514C27.3214 25.0497 24.9718 26.9649 24.5597 29.8564C24.3284 31.4797 24.7739 33.0477 25.8121 34.2699C26.5398 35.1274 27.5277 35.773 28.7037 36.1706C29.0574 43.0653 31.1419 49.4217 31.2354 49.7015C31.4873 50.4642 32.1675 51.0207 32.9666 51.1155C33.0461 51.1251 33.1317 51.13 33.2155 51.13C33.9383 51.13 34.5996 50.764 34.9831 50.1518C35.0463 50.0548 41.6523 39.7805 50.07 39.7805L50.0707 39.7803ZM33.4648 47.4725C32.8039 45.1483 31.569 40.1735 31.4435 35.0583L31.4167 33.9392L30.3183 33.7268C29.2861 33.5271 28.4602 33.0927 27.931 32.4695C27.414 31.8608 27.1937 31.0726 27.3113 30.2485C27.5553 28.5347 29.0803 27.5547 31.1951 27.7514L32.2334 27.8479L32.617 26.8794C33.3622 24.9976 34.4672 23.5437 35.9017 22.5575C43.6651 17.2211 54.4152 20.6187 60.192 22.4434C61.0355 22.7098 61.7631 22.9398 62.3828 23.1122C62.4065 23.1184 62.9471 23.358 63.2104 23.358C63.5848 23.358 63.9569 23.2088 64.2312 22.9126C64.7525 22.35 64.7196 21.47 64.1566 20.9483C62.6061 19.512 61.6139 18.1072 61.2856 16.8868C61.2097 16.6064 61.0034 15.4807 60.978 15.238C60.8876 13.6621 62.0891 12.256 63.608 12.1625C65.1076 12.0704 66.4122 13.3023 66.5105 14.9097C66.5579 15.6768 67.2175 16.2588 67.9833 16.2114C68.7205 16.1653 69.2879 15.5535 69.2879 14.8259C69.2879 14.7974 69.2862 14.7671 69.2849 14.7386C69.2375 13.9601 69.4797 13.207 69.9682 12.6176C70.4452 12.0423 71.1066 11.6995 71.8293 11.6552C72.5648 11.6091 73.2831 11.8725 73.8519 12.3925C74.4163 12.9095 74.7683 13.6353 74.8174 14.3853C74.8223 14.6293 74.7542 15.7707 74.7143 16.0578C74.5208 17.437 73.5632 19.1174 71.9478 20.9185C71.4343 21.489 71.4817 22.3689 72.054 22.8828C72.1505 22.9701 72.3423 23.1175 72.3423 23.1175C72.7592 23.5836 74.9152 26.0521 76.3723 28.8709C78.0179 32.0543 78.1496 34.353 76.7606 35.7037C73.934 38.4544 69.4524 37.4205 67.0331 36.5613L64.3557 35.6085L67.8402 46.162C66.797 45.1601 65.4146 43.9221 63.7975 42.6837C58.867 38.9105 54.2477 36.9971 50.0689 36.9971C45.9248 36.9971 41.5921 39.0198 37.5401 42.8487C35.6926 44.6002 34.2895 46.3534 33.465 47.4729L33.4648 47.4725Z" fill="#d61414"/>
</g>
<path opacity="0.3" d="M3.075 71.615C2.305 72.415 1.92 73.46 1.92 74.75C1.92 76.04 2.305 77.085 3.075 77.885C3.845 78.685 4.85 79.085 6.09 79.085C7.36 79.085 8.38 78.685 9.15 77.885L9.885 78.59C8.905 79.6 7.625 80.105 6.045 80.105C4.475 80.105 3.2 79.61 2.22 78.62C1.24 77.63 0.75 76.34 0.75 74.75C0.75 73.16 1.24 71.87 2.22 70.88C3.2 69.89 4.475 69.395 6.045 69.395C7.625 69.395 8.905 69.9 9.885 70.91L9.15 71.63C8.39 70.82 7.37 70.415 6.09 70.415C4.85 70.415 3.845 70.815 3.075 71.615ZM17.7583 80L15.2383 75.365H13.7983V80H12.6283V69.5H15.5683C16.4883 69.5 17.2283 69.77 17.7883 70.31C18.3483 70.84 18.6283 71.55 18.6283 72.44C18.6283 73.19 18.4233 73.815 18.0133 74.315C17.6133 74.815 17.0683 75.14 16.3783 75.29L19.0483 80H17.7583ZM16.9333 73.865C17.2833 73.505 17.4583 73.03 17.4583 72.44C17.4583 71.85 17.2833 71.38 16.9333 71.03C16.5933 70.67 16.1383 70.49 15.5683 70.49H13.7983V74.39H15.5683C16.1383 74.39 16.5933 74.215 16.9333 73.865ZM28.1113 76.175V69.5H29.2363V76.175C29.2363 77.345 28.8713 78.295 28.1413 79.025C27.4213 79.745 26.4813 80.105 25.3213 80.105C24.1513 80.105 23.2063 79.745 22.4862 79.025C21.7763 78.305 21.4213 77.355 21.4213 76.175V69.5H22.5463V76.175C22.5463 77.045 22.8013 77.75 23.3113 78.29C23.8213 78.82 24.4863 79.085 25.3063 79.085C26.1363 79.085 26.8113 78.82 27.3313 78.29C27.8513 77.75 28.1113 77.045 28.1113 76.175ZM33.639 70.445V74.24H37.569V75.185H33.639V79.055H38.124V80H32.514V69.5H38.049V70.445H33.639ZM42.1097 69.5V79.055H46.2197V80H40.9847V69.5H42.1097ZM51.3562 70.445V80H50.2312V70.445H47.2162V69.5H54.3712V70.445H51.3562ZM60.3908 80V75.47L56.3858 69.5H57.7058L60.9608 74.345L64.2308 69.5H65.5358L61.5308 75.485V80H60.3908ZM73.6927 70.445V74.24H77.3527V75.185H73.6927V80H72.5677V69.5H77.8777V70.445H73.6927ZM85.7729 80L83.2529 75.365H81.8129V80H80.6429V69.5H83.5829C84.5029 69.5 85.2429 69.77 85.8029 70.31C86.3629 70.84 86.6429 71.55 86.6429 72.44C86.6429 73.19 86.4379 73.815 86.0279 74.315C85.6279 74.815 85.0829 75.14 84.3929 75.29L87.0629 80H85.7729ZM84.9479 73.865C85.2979 73.505 85.4729 73.03 85.4729 72.44C85.4729 71.85 85.2979 71.38 84.9479 71.03C84.6079 70.67 84.1529 70.49 83.5829 70.49H81.8129V74.39H83.5829C84.1529 74.39 84.6079 74.215 84.9479 73.865ZM90.7806 70.445V74.24H94.7106V75.185H90.7806V79.055H95.2656V80H89.6556V69.5H95.1906V70.445H90.7806ZM99.2513 70.445V74.24H103.181V75.185H99.2513V79.055H103.736V80H98.1263V69.5H103.661V70.445H99.2513Z" fill="#d61414"/>
<defs>
<clipPath id="clip0_221_5797">
<rect width="60" height="60" fill="white" transform="translate(22.5)"/>
</clipPath>
</defs>
</svg>
