<svg width="16" height="16" viewBox="0 0 16 16" fill="none" xmlns="http://www.w3.org/2000/svg">
<path fill-rule="evenodd" clip-rule="evenodd" d="M8 6.2225L14.0104 0.212132C14.1275 0.0949747 14.3175 0.0949747 14.4346 0.212132L15.7879 1.56537C15.905 1.68252 15.905 1.87247 15.7879 1.98963L9.7775 8L15.7879 14.0104C15.905 14.1275 15.905 14.3175 15.7879 14.4346L14.4346 15.7879C14.3175 15.905 14.1275 15.905 14.0104 15.7879L8 9.7775L1.98963 15.7879C1.87247 15.905 1.68252 15.905 1.56537 15.7879L0.212132 14.4346C0.0949747 14.3175 0.0949747 14.1275 0.212132 14.0104L6.2225 8L0.212132 1.98963C0.0949747 1.87247 0.0949747 1.68252 0.212132 1.56537L1.56537 0.212132C1.68252 0.0949747 1.87247 0.0949747 1.98963 0.212132L8 6.2225Z" fill="#000105"/>
</svg>
