<svg width="136" height="24" viewBox="0 0 136 24" fill="none" xmlns="http://www.w3.org/2000/svg">
<path fill-rule="evenodd" clip-rule="evenodd" d="M7.89481 13.572C8.36745 13.9852 8.57391 14.6252 8.4318 15.2367L7.45375 19.4453L11.1401 17.2021C11.683 16.8717 12.3647 16.8717 12.9076 17.2021L16.594 19.4453L15.6159 15.2367C15.4738 14.6252 15.6803 13.9852 16.1529 13.572L19.4162 10.7191L15.1255 10.3531C14.4975 10.2995 13.9507 9.90293 13.7048 9.32263L12.0239 5.35652L10.3429 9.32263C10.097 9.90293 9.5502 10.2995 8.92222 10.3531L4.63149 10.7191L7.89481 13.572ZM6.77593 14.8519L5.04391 22.3048C4.98375 22.5637 5.26503 22.7671 5.49207 22.629L12.0239 18.6543L18.5556 22.629C18.7827 22.7671 19.064 22.5637 19.0038 22.3048L17.2718 14.8519L23.016 9.83018C23.2153 9.65599 23.1078 9.3279 22.8441 9.30541L15.27 8.65926L12.3001 1.65173C12.1967 1.40782 11.851 1.40782 11.7476 1.65173L8.77772 8.65926L1.20363 9.30541C0.939923 9.3279 0.832421 9.65599 1.03168 9.83018L6.77593 14.8519Z" fill="#000105"/>
<path fill-rule="evenodd" clip-rule="evenodd" d="M35.8948 13.572C36.3674 13.9852 36.5739 14.6252 36.4318 15.2367L35.4537 19.4453L39.1401 17.2021C39.683 16.8717 40.3647 16.8717 40.9076 17.2021L44.594 19.4453L43.6159 15.2367C43.4738 14.6252 43.6803 13.9852 44.1529 13.572L47.4162 10.7191L43.1255 10.3531C42.4975 10.2995 41.9507 9.90293 41.7048 9.32263L40.0239 5.35652L38.3429 9.32263C38.097 9.90293 37.5502 10.2995 36.9222 10.3531L32.6315 10.7191L35.8948 13.572ZM34.7759 14.8519L33.0439 22.3048C32.9837 22.5637 33.265 22.7671 33.4921 22.629L40.0239 18.6543L46.5556 22.629C46.7827 22.7671 47.064 22.5637 47.0038 22.3048L45.2718 14.8519L51.016 9.83018C51.2153 9.65599 51.1078 9.3279 50.8441 9.30541L43.27 8.65926L40.3001 1.65173C40.1967 1.40782 39.851 1.40782 39.7476 1.65173L36.7777 8.65926L29.2036 9.30541C28.9399 9.3279 28.8324 9.65599 29.0317 9.83018L34.7759 14.8519Z" fill="#000105"/>
<path fill-rule="evenodd" clip-rule="evenodd" d="M63.8948 13.572C64.3674 13.9852 64.5739 14.6252 64.4318 15.2367L63.4537 19.4453L67.1401 17.2021C67.683 16.8717 68.3647 16.8717 68.9076 17.2021L72.594 19.4453L71.6159 15.2367C71.4738 14.6252 71.6803 13.9852 72.1529 13.572L75.4162 10.7191L71.1255 10.3531C70.4975 10.2995 69.9507 9.90293 69.7048 9.32263L68.0239 5.35652L66.3429 9.32263C66.097 9.90293 65.5502 10.2995 64.9222 10.3531L60.6315 10.7191L63.8948 13.572ZM62.7759 14.8519L61.0439 22.3048C60.9837 22.5637 61.265 22.7671 61.4921 22.629L68.0239 18.6543L74.5556 22.629C74.7827 22.7671 75.064 22.5637 75.0038 22.3048L73.2718 14.8519L79.016 9.83018C79.2153 9.65599 79.1078 9.3279 78.8441 9.30541L71.27 8.65926L68.3001 1.65173C68.1967 1.40782 67.851 1.40782 67.7476 1.65173L64.7777 8.65926L57.2036 9.30541C56.9399 9.3279 56.8324 9.65599 57.0317 9.83018L62.7759 14.8519Z" fill="#000105"/>
<path fill-rule="evenodd" clip-rule="evenodd" d="M91.8948 13.572C92.3674 13.9852 92.5739 14.6252 92.4318 15.2367L91.4537 19.4453L95.1401 17.2021C95.683 16.8717 96.3647 16.8717 96.9076 17.2021L100.594 19.4453L99.6159 15.2367C99.4738 14.6252 99.6803 13.9852 100.153 13.572L103.416 10.7191L99.1255 10.3531C98.4975 10.2995 97.9507 9.90293 97.7048 9.32263L96.0239 5.35652L94.3429 9.32263C94.097 9.90293 93.5502 10.2995 92.9222 10.3531L88.6315 10.7191L91.8948 13.572ZM90.7759 14.8519L89.0439 22.3048C88.9837 22.5637 89.265 22.7671 89.4921 22.629L96.0239 18.6543L102.556 22.629C102.783 22.7671 103.064 22.5637 103.004 22.3048L101.272 14.8519L107.016 9.83018C107.215 9.65599 107.108 9.3279 106.844 9.30541L99.27 8.65926L96.3001 1.65173C96.1967 1.40782 95.851 1.40782 95.7476 1.65173L92.7777 8.65926L85.2036 9.30541C84.9399 9.3279 84.8324 9.65599 85.0317 9.83018L90.7759 14.8519Z" fill="#000105"/>
<path fill-rule="evenodd" clip-rule="evenodd" d="M119.895 13.572C120.367 13.9852 120.574 14.6252 120.432 15.2367L119.454 19.4453L123.14 17.2021C123.683 16.8717 124.365 16.8717 124.908 17.2021L128.594 19.4453L127.616 15.2367C127.474 14.6252 127.68 13.9852 128.153 13.572L131.416 10.7191L127.126 10.3531C126.498 10.2995 125.951 9.90293 125.705 9.32263L124.024 5.35652L122.343 9.32263C122.097 9.90293 121.55 10.2995 120.922 10.3531L116.631 10.7191L119.895 13.572ZM118.776 14.8519L117.044 22.3048C116.984 22.5637 117.265 22.7671 117.492 22.629L124.024 18.6543L130.556 22.629C130.783 22.7671 131.064 22.5637 131.004 22.3048L129.272 14.8519L135.016 9.83018C135.215 9.65599 135.108 9.3279 134.844 9.30541L127.27 8.65926L124.3 1.65173C124.197 1.40782 123.851 1.40782 123.748 1.65173L120.778 8.65926L113.204 9.30541C112.94 9.3279 112.832 9.65599 113.032 9.83018L118.776 14.8519Z" fill="#000105"/>
</svg>
