<svg width="72" height="72" viewBox="0 0 72 72" fill="none" xmlns="http://www.w3.org/2000/svg">
<path d="M56.7686 24.5074L56.9556 24.1315L56.7686 23.7537C56.6964 23.6088 49.2178 9.01303 30.0019 9.01303C10.7799 9.01303 3.26119 23.6073 3.18702 23.7537L3 24.1296L3.18702 24.5055C3.23594 24.6049 6.72229 31.3786 14.9809 35.7089L3.00495 62.2955L4.5425 62.9867L16.505 36.43C18.0542 37.1348 19.755 37.7365 21.6128 38.2069L16.4764 62.6221L18.1268 62.9676L23.2516 38.6091C25.0589 38.9647 27.0262 39.1585 29.1131 39.2059V62.9575H30.7989V39.2079C32.9212 39.1589 34.9156 38.955 36.7496 38.5892L41.8797 62.9698L43.5301 62.6244L38.3884 38.1889C40.2428 37.7136 41.9403 37.1081 43.4865 36.4004L55.4624 62.987L57 62.2957L45.0067 35.6716C53.2265 31.3408 56.7177 24.6069 56.7678 24.5067L56.7686 24.5074ZM4.90268 24.1315C6.19748 21.9143 13.5613 10.699 30.0009 10.699C46.4322 10.699 53.7621 21.9111 55.0501 24.1296C53.7537 26.3464 46.3851 37.564 29.9518 37.564C13.5224 37.5625 6.19064 26.35 4.90172 24.1315H4.90268Z" fill="black" stroke="black"/>
<path d="M40.9239 24.0826C40.9239 18.2127 36.0148 13.437 29.9797 13.437C23.9443 13.437 19.0316 18.2126 19.0316 24.0826C19.0316 29.9525 23.9426 34.7302 29.9778 34.7302C36.013 34.7302 40.9239 29.9546 40.9239 24.0826ZM20.7174 24.0826C20.7174 19.1415 24.8713 15.1226 29.9777 15.1226C35.0821 15.1226 39.236 19.1433 39.236 24.0826C39.236 29.0218 35.0839 33.0441 29.9777 33.0441C24.8714 33.0441 20.7174 29.0238 20.7174 24.0826Z" fill="black" stroke="black"/>
<path d="M36.96 24.0826C36.96 20.3316 33.8277 17.2822 29.9775 17.2822C26.1273 17.2822 22.993 20.3336 22.993 24.0826C22.993 27.832 26.1254 30.883 29.9775 30.883C33.8278 30.883 36.96 27.8336 36.96 24.0826ZM24.6806 24.0826C24.6806 21.2623 27.0577 18.968 29.9792 18.968C32.9008 18.968 35.2759 21.2622 35.2759 24.0826C35.2759 26.903 32.8988 29.1972 29.9773 29.1972C27.0557 29.1972 24.6806 26.903 24.6806 24.0826Z" fill="black" stroke="black"/>
</svg>
