<svg width="72" height="72" viewBox="0 0 72 72" fill="none" xmlns="http://www.w3.org/2000/svg">
<g clip-path="url(#clip0_770_1152)">
<path d="M30 9C22.839 9 15.9717 11.8448 10.9081 16.9081C5.84476 21.9715 3 28.8396 3 36C3 43.1604 5.84476 50.0283 10.9081 55.0919C15.9715 60.1552 22.8396 63 30 63C37.1604 63 44.0283 60.1552 49.0919 55.0919C54.1552 50.0285 57 43.1604 57 36C57 28.8396 54.1552 21.9717 49.0919 16.9081C44.0281 11.8448 37.1604 9 30 9ZM54.7297 28.6436C54.718 28.6483 54.7059 28.647 54.6942 28.6529V28.6524C53.9789 28.9952 53.1959 29.1731 52.4027 29.1739C51.9348 29.1752 51.4685 29.1099 51.019 28.9806C50.2556 28.7629 49.4818 28.3285 48.5782 28.0092H48.5778C48.0383 27.812 47.4699 27.7061 46.8953 27.6961C46.4257 27.6902 45.9607 27.7878 45.533 27.982C45.1216 28.1774 44.7709 28.4808 44.5176 28.8596C44.2569 29.2363 44.1142 29.682 44.1071 30.1403C44.1062 30.4324 44.1732 30.7212 44.3029 30.9828C44.421 31.1992 44.5595 31.4038 44.716 31.5938C44.801 31.6918 44.8671 31.8044 44.9111 31.9266L44.9211 32.0023C44.9065 32.1509 44.8324 32.2878 44.7156 32.3815C44.5624 32.5247 44.3707 32.6201 44.164 32.6561C44.0723 32.6699 43.9798 32.6766 43.8869 32.6762C43.3244 32.6268 42.767 32.5293 42.2207 32.3849C41.9592 32.3355 41.6938 32.3099 41.4276 32.3087C41.1116 32.3049 40.7973 32.3522 40.4964 32.4485C40.1679 32.5544 39.8715 32.7423 39.6351 32.9938C39.2936 33.3713 39.109 33.8652 39.119 34.3741C39.1307 35.0396 39.3706 35.6808 39.7983 36.191C40.1222 36.5631 40.4968 36.8882 40.9108 37.1569C41.2958 37.4189 41.6758 37.6449 42.0068 37.8806H42.0073C42.3232 38.0969 42.6041 38.361 42.8393 38.6641C43.0352 38.9076 43.1507 39.206 43.1703 39.5183L43.1708 39.5555C43.1687 39.7899 43.1059 40.0201 42.9883 40.2231C42.7426 40.6161 42.4354 40.9676 42.0792 41.264C41.6837 41.6264 41.2305 41.9989 40.8337 42.4401L40.8333 42.4405C40.2176 43.1562 39.7665 43.9982 39.5111 44.9072C39.265 45.7753 39.0855 46.6609 38.9737 47.5561C38.8704 48.3945 38.7122 49.2248 38.5004 50.0422C38.31 50.793 37.9647 51.4957 37.4871 52.1056C36.9029 52.7903 36.0558 53.1959 35.1559 53.2209C34.6654 53.2398 34.1887 53.0548 33.8388 52.7103C33.6182 52.4764 33.4521 52.1964 33.3516 51.8908C33.18 51.3187 33.0599 50.7324 32.9917 50.1388C32.9092 49.4391 32.7109 48.7577 32.4049 48.1228C32.0973 47.6156 31.7558 47.1297 31.3829 46.6685C31.2439 46.4831 31.1238 46.2843 31.0242 46.075C30.9484 45.9168 30.907 45.7439 30.9036 45.5681L30.9128 45.4334V45.4338C30.956 45.2195 31.03 45.0123 31.1317 44.819C31.2807 44.5281 31.3933 44.2201 31.467 43.9016C31.4938 43.7626 31.5072 43.6212 31.5072 43.4793C31.4929 42.8703 31.2669 42.2848 30.8676 41.8244C30.4931 41.3758 30.0176 41.0213 29.4807 40.7907C28.3627 40.3186 27.2344 40.2947 26.2877 40.0574H26.2873C25.1862 39.7942 24.1749 39.2425 23.358 38.4595C22.5406 37.676 21.9463 36.6895 21.6366 35.6005C21.5357 35.192 21.4851 34.773 21.4859 34.3525C21.4633 32.5244 22.3829 30.8134 23.9193 29.8232C24.8731 29.2846 25.9563 29.0167 27.0511 29.0493C28.5046 29.097 29.9444 29.3461 31.3293 29.7897C32.3974 30.1635 33.5132 30.384 34.6437 30.4447C34.8948 30.4451 35.1455 30.4276 35.3941 30.392C36.1663 30.2777 36.8878 29.9404 37.4709 29.4214C38.0861 28.8966 38.4519 28.137 38.4782 27.3288V27.2995C38.4649 26.6001 38.2054 25.928 37.7458 25.4006C37.3156 24.895 36.782 24.4882 36.181 24.2069C35.0041 23.6879 33.7259 23.4389 32.4402 23.4783C31.7362 23.4783 31.0386 23.5289 30.363 23.5917C30.1261 23.6139 29.9018 23.6339 29.7005 23.6335C29.4849 23.6419 29.2698 23.6063 29.0677 23.5297C28.9593 23.4812 28.8647 23.4063 28.7935 23.3113C28.7379 23.2443 28.7044 23.1618 28.6973 23.0752L28.7077 23.0166C28.7508 22.9312 28.8145 22.858 28.8932 22.8036C29.0108 22.7048 29.1865 22.5918 29.3795 22.4365C29.824 22.0565 30.1789 21.5827 30.4183 21.0491C30.7799 20.2949 30.9958 19.5052 31.2758 18.8782H31.2763C31.3934 18.5949 31.5487 18.3287 31.7371 18.0868C31.8969 17.8842 32.1045 17.7243 32.341 17.6209C32.8332 17.4678 33.3505 17.4096 33.8645 17.4498C34.1918 17.4527 34.519 17.4292 34.8426 17.3794C35.2096 17.3217 35.5599 17.1857 35.8705 16.9814C36.3204 16.6684 36.654 16.2143 36.8176 15.6907C36.9674 15.2089 37.0386 14.7059 37.0285 14.2012C37.0285 13.894 37.0093 13.5943 36.9838 13.313C36.9557 13.0083 36.9344 12.697 36.9344 12.3986V12.399C36.9206 11.9926 36.9863 11.587 37.1273 11.2057C41.2892 12.4014 45.0827 14.6259 48.1588 17.6732C51.235 20.7205 53.4946 24.4935 54.7297 28.6436L54.7297 28.6436ZM27.4061 10.3296C27.3144 10.5879 27.1742 10.9696 27.0114 11.3722C26.8791 11.6995 26.7314 12.0406 26.5857 12.3344C26.4786 12.5659 26.3484 12.786 26.1973 12.9915C25.3791 13.9064 24.1959 14.4087 22.9697 14.3613C22.5185 14.3617 22.0694 14.3036 21.6333 14.1885C20.6179 13.8934 19.6724 13.3958 18.8546 12.7257C21.5437 11.4354 24.4377 10.6248 27.4059 10.3297L27.4061 10.3296ZM11.7567 17.7568C12.662 16.8528 13.6326 16.017 14.6613 15.2561C15.0827 15.9094 15.3719 16.6393 15.5117 17.4044C15.5565 17.6581 15.5795 17.915 15.5803 18.1724C15.6159 18.8224 15.4012 19.461 14.9798 19.957C14.6571 20.2592 14.2796 20.4969 13.8677 20.6576C13.3508 20.8652 12.8515 21.1155 12.3748 21.4051C11.5838 22.0045 10.9103 22.7457 10.3897 23.5906C9.95991 24.3021 9.38652 24.9165 8.70684 25.3945C8.28371 25.6243 7.83086 25.7946 7.36166 25.9022C6.95653 26.0102 6.54719 26.1022 6.13658 26.1868C7.43526 23.0331 9.34541 20.1683 11.7566 17.7567L11.7567 17.7568ZM4.66061 31.1562C4.90503 31.1968 5.41481 31.2842 5.97858 31.3981C6.33727 31.4705 6.71561 31.5533 7.05291 31.6396H7.05249C7.32788 31.7048 7.59867 31.789 7.86276 31.8907C8.65378 32.1849 9.31552 32.7482 9.73187 33.4823C9.98801 34.0846 10.1224 34.7312 10.1265 35.3854C10.1399 36.173 10.2433 36.9569 10.4358 37.7208C10.8355 38.7671 11.3989 39.7431 12.1049 40.6124C12.3924 41.0049 12.6465 41.4205 12.8654 41.855C13.0575 42.2371 13.1692 42.6544 13.1948 43.0808L13.1969 43.1892C13.1772 43.6596 13.0956 44.1251 12.9537 44.5737C12.7875 45.1078 12.6645 45.6544 12.5846 46.2077C12.5632 46.4061 12.5527 46.6057 12.5532 46.8053C12.5942 47.6307 12.6829 48.4535 12.8189 49.2688C12.8495 49.5274 12.8654 49.7877 12.8671 50.0481C12.8968 50.6298 12.7511 51.2069 12.4485 51.7042C12.2497 51.9837 11.9957 52.2198 11.7023 52.3973C11.3574 52.6074 10.9975 52.7911 10.625 52.9476C10.6082 52.9552 10.5978 52.9694 10.5823 52.9782C8.00036 50.0309 6.12492 46.5333 5.09913 42.7515C4.0729 38.97 3.9227 35.004 4.66051 31.1564L4.66061 31.1562ZM17.9121 58.7938C18.2791 58.7255 18.65 58.6783 19.0224 58.6523C19.8838 58.6284 20.7359 58.4673 21.5466 58.1756C22.3975 57.732 23.1852 57.1766 23.8887 56.5241C24.1783 56.2914 24.4926 56.0918 24.8266 55.9294C25.1137 55.7862 25.4284 55.708 25.749 55.6996C25.8093 55.6996 25.8691 55.7029 25.929 55.7101C26.3429 55.7737 26.7284 55.9608 27.0351 56.2462C27.4135 56.5873 27.7546 56.9677 28.0517 57.3817C28.3924 57.8563 28.7703 58.3029 29.1822 58.7172C29.6346 59.1764 30.2026 59.5053 30.8258 59.6694C31.1602 59.7368 31.4996 59.7753 31.8403 59.7832C32.0877 59.7866 32.3333 59.8251 32.5702 59.8971C33.0013 60.0996 33.3637 60.4248 33.6124 60.8312C33.7634 61.0401 33.8932 61.2636 34.025 61.4858C32.6932 61.6947 31.3477 61.7997 29.9997 61.8001C25.7846 61.8051 21.6337 60.7726 17.9118 58.7938L17.9121 58.7938ZM48.2433 54.2431C44.6959 57.7968 40.1866 60.2356 35.2704 61.2592C35.2641 61.2295 35.2549 61.2006 35.2436 61.1722C35.0465 60.8106 34.8263 60.4619 34.5852 60.1284C34.1985 59.5232 33.6377 59.049 32.9768 58.7678C32.6328 58.6556 32.2741 58.5945 31.9121 58.5853C31.6404 58.5798 31.3701 58.5518 31.1031 58.5016C30.687 58.3861 30.31 58.1609 30.0112 57.8495C29.6466 57.4791 29.3114 57.0803 29.0088 56.6576C28.6589 56.1729 28.2571 55.728 27.8109 55.3304C27.3238 54.8913 26.7165 54.6084 26.0669 54.5176C25.9615 54.5055 25.8556 54.4992 25.7493 54.4996C25.2538 54.5075 24.7662 54.6243 24.3209 54.8411C23.904 55.042 23.5114 55.2889 23.1502 55.5781C22.5254 56.1611 21.8289 56.6625 21.0781 57.0711C20.3825 57.3101 19.6542 57.4402 18.9193 57.457C18.0932 57.485 17.2804 57.67 16.5237 58.0019C14.7931 56.9401 13.1931 55.6786 11.7567 54.2431C11.6441 54.1305 11.5374 54.0121 11.4269 53.897V53.8974C11.7454 53.7551 12.0539 53.5914 12.3502 53.4073C12.7792 53.1423 13.15 52.7933 13.4396 52.3806C13.8799 51.6842 14.0984 50.871 14.067 50.0478C14.0657 49.7419 14.0469 49.4363 14.0109 49.1329C13.8828 48.362 13.7966 47.5852 13.7531 46.805C13.7527 46.6493 13.7606 46.494 13.7774 46.3396C13.851 45.8486 13.9628 45.3636 14.1109 44.8898C14.2821 44.3382 14.3784 43.7661 14.3968 43.1889L14.3935 43.0307C14.3616 42.4427 14.2106 41.8672 13.949 41.3399C13.5664 40.6137 13.1232 39.922 12.6244 39.2703C12.1799 38.6961 11.8287 38.0553 11.5839 37.3714C11.4207 36.6947 11.3336 36.0016 11.324 35.3056C11.3114 34.492 11.1348 33.6892 10.805 32.9455C10.2618 31.9536 9.38323 31.1873 8.3269 30.7838C8.0084 30.6587 7.68195 30.5561 7.34922 30.4766C6.44562 30.2464 5.36161 30.0568 4.913 29.9815C5.11305 29.1432 5.35538 28.3157 5.63914 27.5017C5.64625 27.5008 5.65337 27.5038 5.66048 27.5021C6.33683 27.3853 7.00727 27.2384 7.67113 27.0609V27.0614C8.24745 26.9266 8.80246 26.7127 9.31975 26.426C10.1468 25.8652 10.8453 25.1349 11.3693 24.2836C11.8079 23.5612 12.3742 22.9242 13.0405 22.4036C13.4636 22.1516 13.906 21.9331 14.3639 21.7502C14.916 21.528 15.4199 21.2003 15.8477 20.7859C16.4838 20.0677 16.8182 19.1311 16.7806 18.1722C16.7797 17.8453 16.7508 17.5193 16.6939 17.1974C16.5232 16.2578 16.1649 15.3622 15.6413 14.5636C16.3097 14.115 16.9995 13.6969 17.7105 13.3093C17.7389 13.3579 17.7745 13.4018 17.8155 13.4399C18.8334 14.3234 20.0313 14.9746 21.3262 15.348C21.8627 15.4899 22.4152 15.5615 22.9702 15.561C24.5576 15.61 26.0832 14.945 27.1283 13.7492C27.3367 13.4747 27.5159 13.1788 27.6619 12.8666C28.0399 12.0626 28.3714 11.2372 28.6539 10.3952C28.6681 10.3425 28.6748 10.2881 28.6739 10.2332C29.1134 10.211 29.5554 10.2002 30.0003 10.1997C32.0063 10.201 34.0056 10.4354 35.9577 10.8987C35.7994 11.3825 35.7241 11.8893 35.735 12.3983C35.735 12.7536 35.7601 13.1001 35.7894 13.4211C35.8128 13.6785 35.8292 13.9431 35.8292 14.2004H35.8287C35.8388 14.5746 35.7886 14.9479 35.681 15.3062C35.6015 15.5811 35.4316 15.821 35.198 15.9867C35.0281 16.0963 34.8368 16.1679 34.6368 16.1964C34.2249 16.2453 33.8106 16.2646 33.3963 16.2533C32.874 16.2407 32.3541 16.3303 31.8666 16.5178C31.3258 16.7593 30.8709 17.1594 30.5629 17.6654C30.1741 18.3644 29.8572 19.1009 29.6178 19.864C29.4341 20.488 29.0913 21.0535 28.623 21.505C28.5033 21.6038 28.325 21.718 28.1304 21.8771C27.891 22.0617 27.7039 22.3061 27.5884 22.5852C27.5285 22.7413 27.498 22.9075 27.498 23.0745C27.5038 23.4215 27.6219 23.7567 27.8345 24.0308C28.0324 24.2949 28.2961 24.5025 28.5991 24.6331C28.949 24.7737 29.324 24.8415 29.7011 24.8327C29.9782 24.8323 30.2376 24.8072 30.4745 24.7854C31.1329 24.7243 31.7945 24.677 32.4408 24.677V24.6775C33.5483 24.639 34.6502 24.8478 35.6661 25.2898C36.1093 25.4961 36.5035 25.7949 36.8225 26.1653C37.1033 26.4776 37.2653 26.8789 37.2791 27.2987V27.315V27.3146C37.256 27.788 37.0338 28.2295 36.6672 28.53C36.2604 28.8891 35.759 29.1227 35.2225 29.2039C35.0312 29.2311 34.8378 29.2445 34.6445 29.244C33.6283 29.1804 32.6255 28.9762 31.6658 28.6368C30.1717 28.1609 28.6188 27.8955 27.052 27.8487C25.7408 27.816 24.4454 28.1421 23.3061 28.7916C21.4048 29.997 20.2622 32.1005 20.2864 34.3518C20.2856 34.8704 20.3484 35.3873 20.4735 35.8907C20.8351 37.1927 21.5391 38.3739 22.5121 39.3118C23.4848 40.2493 24.691 40.9093 26.0055 41.2228C27.1205 41.4852 28.176 41.5271 29.0077 41.8924C29.3689 42.0481 29.6886 42.2859 29.9423 42.5864C30.1637 42.8329 30.293 43.148 30.3081 43.4787C30.3081 43.544 30.3018 43.6093 30.2892 43.6733C30.2323 43.8964 30.1499 44.1119 30.0427 44.3161C29.8895 44.6162 29.7824 44.9372 29.7246 45.2691C29.7112 45.3683 29.7041 45.4679 29.7041 45.5675C29.7079 45.912 29.7845 46.2514 29.9293 46.5636C30.1323 46.9784 30.383 47.3676 30.6759 47.7242C30.9246 48.0272 31.1489 48.3491 31.3468 48.6873C31.6532 49.413 31.8424 50.1831 31.9081 50.9682C31.9725 51.4186 32.078 51.8622 32.2224 52.2937C32.3806 52.762 32.6397 53.1898 32.9804 53.5476C33.5563 54.1235 34.3427 54.4386 35.1567 54.4202C36.4152 54.3976 37.6025 53.8318 38.4133 52.8688C38.9971 52.1313 39.4202 51.2801 39.6555 50.3698C39.8823 49.5013 40.0514 48.6186 40.1619 47.7281C40.2653 46.8935 40.4314 46.0678 40.6591 45.2583C40.8638 44.5158 41.2283 43.8274 41.7276 43.241C42.1437 42.7727 42.7597 42.3039 43.3093 41.7476C43.5956 41.4664 43.8421 41.1475 44.0417 40.7993C44.2556 40.4192 44.3694 39.9911 44.3715 39.555L44.3707 39.4868V39.4847C44.3447 38.9276 44.1476 38.3919 43.8057 37.9513C43.4951 37.5453 43.123 37.1912 42.7024 36.9016C42.3169 36.6287 41.9306 36.3998 41.5879 36.1654C41.2656 35.9586 40.9739 35.7084 40.7203 35.4217C40.4742 35.1266 40.3331 34.7579 40.3198 34.3737C40.3097 34.1673 40.38 33.9648 40.516 33.8091C40.6156 33.7049 40.7399 33.6283 40.8776 33.586C41.0559 33.5312 41.2418 33.5048 41.4284 33.5082C41.6214 33.5094 41.8139 33.5283 42.0031 33.5647C42.6204 33.7271 43.2511 33.8313 43.8877 33.876C44.0417 33.876 44.1953 33.8647 44.3473 33.8417C44.7943 33.7693 45.2094 33.5647 45.5397 33.2541C45.8983 32.9352 46.1089 32.4819 46.1218 32.0018C46.1218 31.8725 46.1051 31.7436 46.072 31.6185C45.99 31.3456 45.8552 31.0919 45.6753 30.8714C45.5644 30.7387 45.4648 30.5968 45.3781 30.4474C45.3308 30.3516 45.307 30.2461 45.3082 30.1398C45.3153 29.9209 45.3869 29.7087 45.5133 29.53C45.6451 29.332 45.8272 29.173 46.0411 29.0692C46.3098 28.9491 46.6019 28.8896 46.8965 28.8955C47.336 28.906 47.7709 28.9893 48.1831 29.1416C48.9541 29.4069 49.7451 29.8556 50.6851 30.1323C51.2439 30.2934 51.8222 30.3746 52.404 30.3737C53.3148 30.3704 54.2154 30.1762 55.0466 29.8033C56.113 34.118 56.0473 38.6351 54.8558 42.9166C53.6638 47.1985 51.3866 51.1001 48.2439 54.2427L48.2433 54.2431Z" fill="black" stroke="#000105"/>
</g>
<defs>
<clipPath id="clip0_770_1152">
<rect width="60" height="60" fill="white" transform="translate(0 6)"/>
</clipPath>
</defs>
</svg>
