<svg width="72" height="72" viewBox="0 0 72 72" fill="none" xmlns="http://www.w3.org/2000/svg">
<g clip-path="url(#clip0_770_1130)">
<path d="M50.0492 20.3853H49.7018V9.67989C49.7018 9.30705 49.4 9.00482 49.0267 9.00482H35.4798C35.107 9.00482 34.8047 9.30705 34.8047 9.67989V20.3858L34.4583 20.3854C31.7284 20.3854 29.5073 22.6064 29.5073 25.3368V58.0441C29.5073 60.774 31.7284 62.9951 34.4583 62.9951H50.0491C52.779 62.9951 55 60.774 55 58.0436V25.3375C55 22.6071 52.779 20.3861 50.0491 20.3861L50.0492 20.3853ZM48.3521 10.3545V14.0415H45.8233C45.6053 14.0415 45.401 14.1465 45.2744 14.3244C44.5744 15.3046 43.445 15.8892 42.2541 15.8892C41.0632 15.8892 39.9337 15.3045 39.2338 14.3244C39.1071 14.147 38.9028 14.0415 38.6849 14.0415H36.1555L36.155 10.3545H48.3521ZM36.155 15.3911H38.3524C39.3128 16.5539 40.7462 17.2389 42.254 17.2389C43.7619 17.2389 45.1953 16.5539 46.1557 15.3911H48.3523V20.3853H36.1551L36.155 15.3911ZM53.6511 51.5693H30.8584V31.8111H53.6511V51.5693ZM50.0498 61.6453H34.459C32.4733 61.6453 30.8577 60.0297 30.8577 58.044V52.9194L53.6504 52.9189V58.0435C53.6504 60.0296 52.0348 61.6453 50.0491 61.6453L50.0498 61.6453ZM53.6511 30.4612H30.8584V25.3366C30.8584 23.3509 32.4735 21.7353 34.4597 21.7353H50.0505C52.0362 21.7349 53.6518 23.3505 53.6518 25.3366L53.6511 30.4612Z" fill="black" stroke="black"/>
<path d="M5.05308 62.7988C5.17924 62.9245 5.35012 62.9951 5.52854 62.9951H7.84228C8.0207 62.9951 8.19204 62.9245 8.31821 62.7984C12.6742 58.4631 12.3752 53.1733 12.362 52.9948L12.3625 36.282L12.3611 19.051C12.3757 18.8279 12.6742 13.538 8.31823 9.20277C8.19253 9.07613 8.02119 9.00552 7.84277 9.00552H5.52903C5.35061 9.00552 5.17973 9.07614 5.0531 9.20183C0.696777 13.5375 0.99565 18.8274 1.00879 19.0058V36.2826L1.0102 52.9509C0.995606 53.174 0.696671 58.4639 5.05306 62.7996L5.05308 62.7988ZM7.55988 61.6455H5.81147C2.10712 57.7918 2.35418 53.0858 2.35851 52.9949V36.957H11.0125L11.0139 53.0383C11.0176 53.0863 11.2638 57.7919 7.55996 61.6456L7.55988 61.6455ZM5.81147 10.3549H7.55988C11.2637 14.2086 11.0172 18.9147 11.0128 19.0055V35.6075H2.35851L2.3571 18.9609C2.35428 18.9129 2.08924 14.2256 5.8115 10.3551L5.81147 10.3549Z" fill="black" stroke="black"/>
<path d="M19.305 62.7976C19.4311 62.9238 19.6025 62.9949 19.7814 62.9949H22.0951C22.2735 62.9949 22.4449 62.9238 22.5715 62.7976C26.9265 58.4512 26.6275 53.1486 26.6144 52.9696V39.6975C26.6144 39.3246 26.3126 39.0224 25.9393 39.0224H21.6126V23.2279H24.0248C24.3977 23.2279 24.6999 22.9257 24.6999 22.5528C24.6999 22.18 24.3982 21.8778 24.0248 21.8778H21.6126V19.3719H25.4182C25.7911 19.3719 26.0933 19.0697 26.0933 18.6969C26.0933 18.324 25.7915 18.0218 25.4182 18.0218H21.6126V15.6115H25.4182C25.7911 15.6115 26.0933 15.3093 26.0933 14.9365C26.0933 14.5636 25.7915 14.2614 25.4182 14.2614H21.6126V11.7556H24.0248C24.3977 11.7556 24.6999 11.4533 24.6999 11.0805C24.6999 10.7077 24.3982 10.4054 24.0248 10.4054H21.6126V9.68047C21.6126 9.30763 21.3109 9.0054 20.9376 9.0054C20.5647 9.0054 20.2625 9.30763 20.2625 9.68047V10.4068H17.8508C17.4779 10.4068 17.1757 10.7091 17.1757 11.0819C17.1757 11.4548 17.4775 11.757 17.8508 11.757H20.2625V14.2628H16.4569C16.0841 14.2628 15.7819 14.565 15.7819 14.9379C15.7819 15.3107 16.0836 15.6129 16.4569 15.6129H20.2625V18.0232H16.4569C16.0841 18.0232 15.7819 18.3254 15.7819 18.6983C15.7819 19.0711 16.0836 19.3734 16.4569 19.3734H20.2625V21.8792H17.8508C17.4779 21.8792 17.1757 22.1814 17.1757 22.5543C17.1757 22.9271 17.4775 23.2293 17.8508 23.2293H20.2625V39.0238H15.9358C15.563 39.0238 15.2608 39.326 15.2608 39.6989L15.2622 52.9264C15.2485 53.1491 14.9491 58.4513 19.305 62.7977L19.305 62.7976ZM16.6113 52.9701V40.3716H25.2647L25.2661 53.0147C25.2694 53.0622 25.5349 57.7632 21.8117 61.645H20.0648C16.3595 57.7802 16.6066 53.0604 16.6113 52.97L16.6113 52.9701Z" fill="black" stroke="black"/>
</g>
<defs>
<clipPath id="clip0_770_1130">
<rect width="72" height="72" fill="white"/>
</clipPath>
</defs>
</svg>
