<svg width="72" height="72" viewBox="0 0 72 72" fill="none" xmlns="http://www.w3.org/2000/svg">
<g clip-path="url(#clip0_770_1165)">
<path fill-rule="evenodd" clip-rule="evenodd" d="M25.8831 9.96223C25.1884 11.6755 23.2337 13.73 20.8144 15.9331C16.8815 19.5145 11.702 23.3866 8.01956 26.5848C6.37173 28.0157 5.01678 29.3226 4.16862 30.4167C3.5023 31.2754 3.13383 32.0556 3.04346 32.6897C3.01512 32.788 3 32.8923 3 33C3 46.2457 13.7543 57 27 57C40.2457 57 51 46.2457 51 33C51 19.7543 40.2457 9 27 9C26.4338 9 25.9644 9.41763 25.8832 9.96188L25.8831 9.96223ZM28.3666 11.3005C28.723 13.8721 28.4807 19.7031 21.6856 27.3512C20.9992 28.1237 20.317 28.8184 19.6409 29.4431C19.6624 29.5308 19.6745 29.6223 19.6745 29.7171V34.703C19.6745 35.3262 19.1684 35.8315 18.5452 35.8315C17.9227 35.8315 17.4166 35.3262 17.4166 34.703V31.2724C12.1847 35.0643 7.61441 34.8856 5.30294 34.4195C6.03654 45.7591 15.4777 54.7418 26.9992 54.7418C38.9987 54.7418 48.741 44.9996 48.741 33.0001C48.741 21.4582 39.7287 12.0063 28.3654 11.3009L28.3666 11.3005ZM14.3517 43.753C18.6198 46.9206 22.8725 48.4918 27.0885 48.4464C31.3124 48.4007 35.5216 46.7347 39.6908 43.315C40.1726 42.9197 40.2429 42.2083 39.848 41.7265C39.4523 41.245 38.741 41.1743 38.2595 41.5693C34.5484 44.6129 30.8237 46.1485 27.064 46.1885C23.2947 46.2297 19.5126 44.7716 15.6972 41.94C15.1965 41.5689 14.489 41.6736 14.1178 42.174C13.7467 42.674 13.8514 43.3819 14.3518 43.753H14.3517ZM34.3247 21.7694V34.7036C34.3247 35.3268 34.8308 35.8321 35.4541 35.8321C36.0765 35.8321 36.5826 35.3268 36.5826 34.7036V21.7694C36.5826 21.1465 36.0765 20.6405 35.4541 20.6405C34.8308 20.6405 34.3247 21.1465 34.3247 21.7694ZM5.65052 32.1734C5.86784 31.8628 6.16717 31.5196 6.51224 31.1359C7.84455 29.6566 9.95235 27.8621 12.3258 25.9217C15.9882 22.9287 20.2734 19.6059 23.4439 16.5675C24.4829 15.5716 25.4032 14.5991 26.156 13.6743C25.941 16.3147 24.6964 20.5635 19.9974 25.8528C13.7601 32.8739 7.95533 32.6381 5.64967 32.1732L5.65052 32.1734Z" fill="black"/>
</g>
<defs>
<clipPath id="clip0_770_1165">
<rect width="60" height="60" fill="white" transform="translate(0 6)"/>
</clipPath>
</defs>
</svg>
