<svg width="36" height="36" viewBox="0 0 36 36" fill="none" xmlns="http://www.w3.org/2000/svg">
<rect width="36" height="36" rx="18" fill="#000105"/>
<path fill-rule="evenodd" clip-rule="evenodd" d="M15.0989 15V13.8571C15.0989 12.2792 16.3781 11 17.9561 11C19.534 11 20.8132 12.2792 20.8132 13.8571V15H22.5275C22.8431 15 23.0989 15.2558 23.0989 15.5714V22.4286C23.0989 22.7442 22.8431 23 22.5275 23H13.3847C13.0691 23 12.8132 22.7442 12.8132 22.4286V15.5714C12.8132 15.2558 13.0691 15 13.3847 15H15.0989ZM15.0989 16.1432H13.9561V21.8575H21.9561V16.1432H20.8132V17.2861H19.6704V16.1432H16.2418V17.2861H15.0989V16.1432ZM16.2418 15H19.6703V13.8572C19.6703 12.9104 18.9028 12.1429 17.9561 12.1429C17.0093 12.1429 16.2418 12.9104 16.2418 13.8572V15Z" fill="white"/>
</svg>
